<svg id="b4e99a7a-d23d-438a-a416-f7f2e49d0213" data-name="Layer 1" xmlns="http://www.w3.org/2000/svg" viewBox="0 0 539 648.6">
  <defs>
    <style>
      .b3928407-8845-43d0-abc7-146d5400f5f3 {
        fill: #999;
      }

      .ac3a706d-dc8e-4895-95c3-3b94e1a7ffc5 {
        fill: #0d1137;
      }
    </style>
  </defs>
  <title>logo2</title>
  <g>
    <g>
      <path class="b3928407-8845-43d0-abc7-146d5400f5f3" d="M390.43,53l26.38,60a2.58,2.58,0,0,1,.08.26L462,302.81a1.48,1.48,0,0,0,.25.54l98.32,135.28a1.49,1.49,0,0,0,2.69-1.06L526.86,132.26a1.49,1.49,0,0,0-.72-1.11L392.54,51.07a1.5,1.5,0,0,0-2.11,2Z" transform="translate(-390.27 -50.85)"/>
      <path class="b3928407-8845-43d0-abc7-146d5400f5f3" d="M928.09,53l-26.37,60a1.29,1.29,0,0,0-.08.26l-45.1,189.53a1.32,1.32,0,0,1-.24.54L758,438.63a1.5,1.5,0,0,1-2.7-1.06l36.38-305.31a1.52,1.52,0,0,1,.72-1.11L926,51.07a1.5,1.5,0,0,1,2.11,2Z" transform="translate(-390.27 -50.85)"/>
      <path class="b3928407-8845-43d0-abc7-146d5400f5f3" d="M649.77,521.19a4.14,4.14,0,0,1,0-.58" transform="translate(-390.27 -50.85)"/>
      <path class="b3928407-8845-43d0-abc7-146d5400f5f3" d="M548.31,144.28l14.93,38.16a.14.14,0,0,1,0,.06l25.17,330.83a.14.14,0,0,0,0,.06L659,699.3a.23.23,0,0,0,.45-.09l-4.38-155.93a.28.28,0,0,0,0-.09l-7.28-17.53a.29.29,0,0,1,0-.09l-10.3-335.31a.24.24,0,0,0-.12-.2l-87.27-47.33A1.25,1.25,0,0,0,548.31,144.28Z" transform="translate(-390.27 -50.85)"/>
      <path class="b3928407-8845-43d0-abc7-146d5400f5f3" d="M770.66,144.28l-14.93,38.16a.13.13,0,0,0,0,.06L730.54,513.33a.13.13,0,0,1,0,.06L660,699.3a.23.23,0,0,1-.44-.09l4.37-155.93a.29.29,0,0,1,0-.09l7.28-17.53a.28.28,0,0,0,0-.09l10.31-335.31a.22.22,0,0,1,.12-.2l87.27-47.33A1.25,1.25,0,0,1,770.66,144.28Z" transform="translate(-390.27 -50.85)"/>
    </g>
    <path class="ac3a706d-dc8e-4895-95c3-3b94e1a7ffc5" d="M465.66,187.47h13.55l12.67,34,12.37-34h13.08v2.59h-1.1a6.91,6.91,0,0,0-2.69.34,2.34,2.34,0,0,0-1.1,1.19,7.22,7.22,0,0,0-.4,2.8v28.3a11.28,11.28,0,0,0,.33,3.48,2.31,2.31,0,0,0,1.07,1.21,6.36,6.36,0,0,0,2.79.42h1.1v2.58H500.94V227.8h1.17a7.51,7.51,0,0,0,2.29-.25,2.62,2.62,0,0,0,1.2-.81,2.17,2.17,0,0,0,.54-1.19,17.66,17.66,0,0,0,.15-2V192l-14,38.39H489.2l-14.1-37.83v30.39a8.08,8.08,0,0,0,.4,3.14,2.79,2.79,0,0,0,1.25,1.27,7,7,0,0,0,3,.45h1v2.58h-15.1V227.8h.86a7.6,7.6,0,0,0,3.12-.46A2.8,2.8,0,0,0,471,226a9.24,9.24,0,0,0,.4-3.34v-28a9.21,9.21,0,0,0-.34-3.11,2.2,2.2,0,0,0-1.12-1.13,7.24,7.24,0,0,0-2.79-.37h-1.47Z" transform="translate(-390.27 -50.85)"/>
    <path class="ac3a706d-dc8e-4895-95c3-3b94e1a7ffc5" d="M817.71,186.62h2.15l.31,1.44H846.5l.25-1.44H849l4.52,12.61-2.77,1q-2-5-4.73-7.09a11.46,11.46,0,0,0-7-2,8.76,8.76,0,0,0-2.12.14.85.85,0,0,0-.48.47,9.07,9.07,0,0,0-.14,2.16v29.77a11.11,11.11,0,0,0,.24,2.87,2.24,2.24,0,0,0,1.84,1.7,20.32,20.32,0,0,0,3.37.2V231H825.15v-2.59a21.78,21.78,0,0,0,3.35-.18A2.41,2.41,0,0,0,830,227a7.51,7.51,0,0,0,.46-3.19v-30.4a5.67,5.67,0,0,0-.14-1.72.94.94,0,0,0-.52-.47,4.76,4.76,0,0,0-1.58-.17,14,14,0,0,0-5.37.86,10.65,10.65,0,0,0-3.8,2.92,18,18,0,0,0-3.05,5.35l-2.76-1Z" transform="translate(-390.27 -50.85)"/>
    <g>
      <path class="b3928407-8845-43d0-abc7-146d5400f5f3" d="M738.58,677.6l2.69,2.18a35.9,35.9,0,0,1-5.94,5.8,20,20,0,0,1-5.44,3,19,19,0,0,1-6,.86,20.51,20.51,0,0,1-10.5-2.52,20.28,20.28,0,0,1-7.6-7.56,22,22,0,0,1-2.65-11A23.4,23.4,0,0,1,705.71,657a19,19,0,0,1,7.15-7.41,20.67,20.67,0,0,1,10.65-2.71,19.88,19.88,0,0,1,7.81,1.41,14.35,14.35,0,0,1,5.63,4.23,17.92,17.92,0,0,1,3.36,6.47,23.94,23.94,0,0,1,.67,5.53H711.29c-.08,1.37-.13,2.4-.13,3.07a23,23,0,0,0,1.85,9.45,13.55,13.55,0,0,0,4.89,6.1,12.56,12.56,0,0,0,6.91,2,14,14,0,0,0,6.34-1.54A30.45,30.45,0,0,0,738.58,677.6Zm-5.37-17a15.9,15.9,0,0,0-1.79-5.71,8.14,8.14,0,0,0-3.27-2.94,10.34,10.34,0,0,0-4.77-1.09,11.55,11.55,0,0,0-5,1.09,10.61,10.61,0,0,0-3.84,3,17.12,17.12,0,0,0-2.67,5.62Z" transform="translate(-390.27 -50.85)"/>
      <path class="b3928407-8845-43d0-abc7-146d5400f5f3" d="M747.32,653.92v-3.49a24.5,24.5,0,0,0,5.44-1,29.35,29.35,0,0,0,5.44-2.51h3.14v7.94a23.18,23.18,0,0,1,6.93-5.8,15.29,15.29,0,0,1,7.1-2.14,7.55,7.55,0,0,1,4.91,1.47,4.44,4.44,0,0,1,1.81,3.57,3.6,3.6,0,0,1-1.2,2.67,4,4,0,0,1-2.87,1.15,3.67,3.67,0,0,1-1.31-.21,8.77,8.77,0,0,1-1.59-.92,7.55,7.55,0,0,0-3.87-1.51,8.28,8.28,0,0,0-4.61,1.76,26,26,0,0,0-5,4.45v19.36a14.09,14.09,0,0,0,.27,3.42,3.81,3.81,0,0,0,.9,1.56,3.64,3.64,0,0,0,1.56.94,11.82,11.82,0,0,0,3.23.3H769v3.52H747.28v-3.52h1.8a7.75,7.75,0,0,0,3.36-.47,3.89,3.89,0,0,0,1.62-1.74,10.52,10.52,0,0,0,.52-4V653.92Z" transform="translate(-390.27 -50.85)"/>
      <path class="b3928407-8845-43d0-abc7-146d5400f5f3" d="M815.42,664.12v-4.58c0-3.11-.87-5.32-2.61-6.65s-4.19-2-7.36-2a13.51,13.51,0,0,0-4.13.57,7.54,7.54,0,0,0-2.84,1.55,6.28,6.28,0,0,0-1.58,2.25c-.14.31-.47,1.5-1,3.57q-1,3.78-3.9,3.78a3.53,3.53,0,0,1-2.71-1.11,4.26,4.26,0,0,1-1-3,8.86,8.86,0,0,1,2.06-5.44,14.87,14.87,0,0,1,6.28-4.4,25.83,25.83,0,0,1,10-1.75,23.16,23.16,0,0,1,9.2,1.66,11.54,11.54,0,0,1,5.62,4.76q1.26,2.14,1.26,7.8v16.15a29.22,29.22,0,0,0,.21,4.49,4.88,4.88,0,0,0,1.62,2.71,4.74,4.74,0,0,0,3,.9,15.17,15.17,0,0,0,4.62-.89v3.66a22.86,22.86,0,0,1-6.26,1,13.15,13.15,0,0,1-5-.84,8.06,8.06,0,0,1-5-6.3,37.6,37.6,0,0,1-9.11,5.54,22.51,22.51,0,0,1-8.23,1.6,13.79,13.79,0,0,1-9.41-3.15,9.54,9.54,0,0,1-3.61-7.39,9.66,9.66,0,0,1,1.32-4.87,12.25,12.25,0,0,1,4-4.08,28,28,0,0,1,8.51-3.11A143.65,143.65,0,0,1,815.42,664.12Zm0,3.65c-6.5,1-10.52,1.61-12.06,2a22.09,22.09,0,0,0-6.55,2.31,8.35,8.35,0,0,0-2.82,2.7,6.08,6.08,0,0,0-.84,3.09,6,6,0,0,0,1,3.17,6.6,6.6,0,0,0,2.67,2.42,8,8,0,0,0,3.65.88,17.93,17.93,0,0,0,6.18-1.3,42.93,42.93,0,0,0,8.82-5.08Z" transform="translate(-390.27 -50.85)"/>
      <path class="b3928407-8845-43d0-abc7-146d5400f5f3" d="M831.47,694.9h44v4.28h-44Z" transform="translate(-390.27 -50.85)"/>
      <path class="b3928407-8845-43d0-abc7-146d5400f5f3" d="M885.26,629.85H926v3.54l-38.27,50.55h14.07q9.58,0,14.6-3.23t9-11.78l3.86,1.31-6.76,18.19H877.2v-3.49l38.35-50.59H903.37a31.83,31.83,0,0,0-9.7,1.18,16.68,16.68,0,0,0-6.26,3.68,31.85,31.85,0,0,0-5.63,7.86l-3.61-1.76Z" transform="translate(-390.27 -50.85)"/>
    </g>
  </g>
</svg>
